<?xml version="1.0" standalone="no"?>
<!DOCTYPE svg PUBLIC "-//W3C//DTD SVG 20010904//EN"
 "http://www.w3.org/TR/2001/REC-SVG-20010904/DTD/svg10.dtd">
<svg version="1.0" xmlns="http://www.w3.org/2000/svg"
 width="300.000000pt" height="300.000000pt" viewBox="0 0 300.000000 300.000000"
 preserveAspectRatio="xMidYMid meet">
<metadata>
Created by potrace 1.10, written by Peter Selinger 2001-2011
</metadata>
<g transform="translate(0.000000,300.000000) scale(0.100000,-0.100000)"
fill="#000000" stroke="none">
<path d="M872 2055 c-93 -26 -170 -94 -201 -178 -6 -16 -11 -70 -11 -121 l0
-93 68 -6 c37 -4 396 -7 797 -6 613 0 724 3 695 13 -70 26 -117 29 -175 10
-31 -9 -57 -15 -60 -12 -2 2 -2 50 2 106 l6 102 162 0 c185 0 175 -5 175 86 0
99 14 94 -260 94 -132 0 -241 -1 -241 -2 -1 -2 -7 -88 -13 -193 l-11 -190 -91
-3 -91 -3 -5 98 c-7 117 -29 174 -90 229 -60 54 -120 77 -204 78 -60 0 -80 -4
-129 -29 l-58 -30 -56 27 c-71 35 -140 42 -209 23z m200 -62 c54 -24 63 -25
92 -14 84 35 105 40 155 41 73 0 124 -17 171 -58 63 -53 81 -98 78 -190 l-3
-77 -55 0 -55 0 -6 65 c-6 71 -15 94 -52 128 -34 32 -84 38 -124 13 -47 -29
-64 -62 -71 -138 l-7 -68 -48 -3 c-65 -4 -77 8 -77 77 0 44 -6 65 -25 93 -71
105 -215 48 -215 -85 0 -84 -17 -97 -92 -76 l-38 10 0 65 c0 35 6 79 13 97 55
130 216 184 359 120z m1196 8 c8 -5 12 -23 10 -47 l-3 -39 -138 -5 c-137 -5
-139 -5 -163 -33 -18 -21 -24 -41 -25 -80 -2 -89 -9 -102 -54 -102 l-40 0 3
145 c2 82 8 150 14 157 12 15 374 19 396 4z m-1264 -146 c24 -22 26 -30 26
-110 l0 -85 -80 0 -80 0 0 81 c0 87 9 115 43 129 38 15 63 11 91 -15z m373 1
c26 -23 28 -31 32 -110 l3 -86 -87 0 -87 0 3 86 c4 79 6 87 32 110 15 13 39
24 52 24 13 0 37 -11 52 -24z"/>
<path d="M1037 1543 c-11 -10 -8 -103 3 -103 6 0 10 7 10 16 0 9 8 23 18 30
16 13 16 13 0 14 -22 0 -24 16 -3 24 8 3 15 10 15 16 0 11 -33 14 -43 3z"/>
<path d="M1167 1542 c-5 -7 -10 -77 -8 -97 1 -5 8 -1 16 9 13 17 15 18 15 3 0
-9 5 -17 10 -17 14 0 12 84 -2 98 -14 14 -25 15 -31 4z"/>
<path d="M1303 1543 c-18 -6 -16 -38 2 -53 8 -7 15 -18 15 -24 0 -6 -4 -4 -10
4 -11 18 -25 6 -16 -15 8 -21 40 -15 44 8 2 10 -4 27 -14 38 -9 10 -14 22 -11
26 4 3 7 1 7 -5 0 -7 5 -12 10 -12 14 0 12 27 -2 32 -7 3 -19 3 -25 1z"/>
<path d="M1428 1544 c-12 -11 -10 -92 2 -99 6 -4 10 5 10 19 0 14 5 26 10 26
6 0 10 -11 10 -25 0 -14 5 -25 10 -25 6 0 10 22 10 49 0 28 -4 53 -10 56 -6 4
-10 -5 -10 -19 0 -34 -18 -34 -22 0 -2 14 -6 22 -10 18z"/>
<path d="M1560 1495 c0 -30 5 -55 10 -55 6 0 10 25 10 55 0 30 -4 55 -10 55
-5 0 -10 -25 -10 -55z"/>
<path d="M1672 1538 c-32 -32 -1 -116 33 -88 26 22 14 100 -15 100 -3 0 -11
-5 -18 -12z m28 -43 c0 -13 -4 -27 -10 -30 -6 -4 -10 8 -10 30 0 22 4 34 10
30 6 -3 10 -17 10 -30z"/>
<path d="M1807 1542 c-10 -15 -11 -92 -2 -94 6 -2 13 17 16 42 l6 45 1 -47 c2
-63 22 -62 22 1 0 35 -4 51 -16 55 -20 8 -22 8 -27 -2z"/>
<path d="M1943 1543 c-18 -6 -16 -38 2 -53 8 -7 15 -18 15 -24 0 -6 -4 -4 -10
4 -11 18 -25 6 -16 -15 8 -21 40 -15 44 8 2 10 -4 27 -14 38 -9 10 -14 22 -11
26 4 3 7 1 7 -5 0 -7 5 -12 10 -12 14 0 12 27 -2 32 -7 3 -19 3 -25 1z"/>
<path d="M708 1343 l-48 -4 0 -185 0 -185 103 3 102 3 3 183 2 182 80 0 80 0
0 -172 c0 -95 4 -179 8 -186 6 -9 34 -12 103 -10 l94 3 3 183 2 182 85 0 85 0
2 -182 3 -183 94 -3 c69 -2 97 1 103 10 4 7 8 91 8 186 l0 172 275 0 275 0 0
-71 c0 -68 -2 -73 -35 -106 -30 -30 -40 -35 -67 -29 -43 9 -76 42 -80 80 l-3
31 -91 3 c-106 3 -110 0 -93 -76 57 -255 407 -300 526 -68 21 41 28 69 31 142
l4 91 -83 6 c-86 7 -1486 6 -1571 0z m107 -183 l0 -145 -55 0 -55 0 -3 137 -3
137 28 7 c15 3 33 7 38 9 6 2 19 3 30 2 19 -2 20 -9 20 -147z m380 128 c3 -13
4 -79 3 -148 l-3 -125 -48 -3 c-74 -5 -77 1 -77 147 0 85 4 131 12 139 7 7 34
12 60 12 41 0 48 -3 53 -22z m370 -128 l0 -145 -55 0 -55 0 -3 134 c-1 74 0
141 3 149 3 9 20 12 57 10 l53 -3 0 -145z m747 119 c14 -22 0 -119 -25 -163
-79 -144 -294 -163 -401 -35 -35 42 -55 107 -35 120 21 13 77 11 88 -3 6 -7
23 -28 38 -47 90 -112 233 -42 233 115 0 17 2 33 5 36 10 9 87 -9 97 -23z"/>
</g>
</svg>
